<svg xmlns="http://www.w3.org/2000/svg" version="1.1" xmlns:xlink="http://www.w3.org/1999/xlink" xmlns:svgjs="http://svgjs.dev/svgjs" width="1500" height="1500" viewBox="0 0 1500 1500"><rect width="1500" height="1500" fill="#000000"></rect><g transform="matrix(0.6666666666666666,0,0,0.6666666666666666,250.00057626376372,187.66666666666674)"><svg viewBox="0 0 320 360" data-background-color="#c8f7dd" preserveAspectRatio="xMidYMid meet" height="1687" width="1500" xmlns="http://www.w3.org/2000/svg" xmlns:xlink="http://www.w3.org/1999/xlink"><g id="tight-bounds" transform="matrix(1,0,0,1,0.00018440440442191175,0)"><svg viewBox="0 0 320 360" height="360" width="320"><g><svg></svg></g><g><svg viewBox="0 0 320 360" height="360" width="320"><g><path d="M294.684 112.125c-8.775-10.699-25.381-16.201-43-22.006-7.56-2.498-15.357-5.097-22.985-8.235-7.695-3.173-15.256-7.257-22.613-11.172-14.952-8.033-30.41-16.336-46.105-16.336-15.661 0-31.119 8.303-46.071 16.336-7.358 3.949-14.952 8.033-22.648 11.205-7.594 3.139-15.425 5.704-22.985 8.236-17.618 5.839-34.224 11.341-42.999 22.006-11.712 14.277-11.442 35.439-11.172 57.817 0.034 3.375 0.068 6.717 0.067 10.024 0 3.308-0.034 6.649-0.101 10.024-0.27 22.411-0.54 43.54 11.172 57.851 8.775 10.666 25.381 16.167 42.966 22.006 7.56 2.498 15.357 5.097 23.019 8.235 7.695 3.173 15.256 7.223 22.579 11.172 14.986 8.067 30.444 16.37 46.105 16.37 15.695 0 31.153-8.303 46.105-16.336 7.358-3.949 14.918-8.033 22.614-11.172 7.594-3.139 15.357-5.704 22.884-8.202 17.72-5.873 34.326-11.374 43.101-22.039 11.712-14.277 11.442-35.439 11.171-57.817-0.034-3.409-0.101-6.75-0.101-10.058 0-3.308 0.034-6.649 0.101-9.991 0.371-22.479 0.641-43.641-11.104-57.918zM305.552 103.215c-15.728-19.171-45.801-23.727-71.486-34.326-22.985-9.45-46.375-28.588-74.051-28.587-27.676 0-51.066 19.137-74.052 28.587-25.719 10.598-55.758 15.155-71.486 34.326-17.078 20.791-14.311 50.121-14.311 76.785 0 26.63-2.768 55.994 14.277 76.785 15.728 19.171 45.801 23.727 71.487 34.326 22.985 9.484 46.375 28.588 74.051 28.587 27.676 0 51.066-19.103 74.051-28.587 25.719-10.598 55.758-15.155 71.486-34.326 17.045-20.791 14.277-50.121 14.277-76.785 0.068-26.664 2.835-55.994-14.243-76.785zM309.872 189.923c0.304 23.221 0.574 45.059-12.083 60.483-9.518 11.577-26.664 17.281-44.822 23.289-7.56 2.498-15.29 5.063-22.715 8.134-7.493 3.071-14.952 7.088-22.175 10.969-15.458 8.303-31.355 16.842-48.062 16.842-16.707 0-32.604-8.539-47.995-16.808-7.257-3.915-14.75-7.932-22.243-11.003-7.527-3.105-15.256-5.67-22.748-8.134-18.192-6.008-35.338-11.712-44.823-23.289-12.623-15.391-12.353-37.262-12.083-60.415 0.034-3.375 0.101-6.683 0.101-9.991 0-3.308-0.034-6.615-0.067-9.991-0.304-23.154-0.574-45.025 12.083-60.415 9.518-11.577 26.664-17.247 44.822-23.289 7.527-2.498 15.256-5.063 22.749-8.134 7.493-3.105 14.986-7.122 22.242-11.003 15.391-8.269 31.322-16.842 47.995-16.842 16.673 0 32.604 8.539 47.995 16.808 7.257 3.915 14.75 7.932 22.243 11.003 7.493 3.105 15.256 5.637 22.715 8.134 18.158 6.008 35.338 11.712 44.822 23.289 12.657 15.425 12.387 37.262 12.083 60.416-0.034 3.409-0.101 6.717-0.101 9.99 0 3.308 0.034 6.615 0.067 9.957z" fill="#ffffff" fill-rule="nonzero" stroke="none" stroke-width="1" stroke-linecap="butt" stroke-linejoin="miter" stroke-miterlimit="10" stroke-dasharray="" stroke-dashoffset="0" font-family="none" font-weight="none" font-size="none" text-anchor="none" style="mix-blend-mode: normal" data-fill-palette-color="tertiary"></path></g><g transform="matrix(1,0,0,1,64,150.18766405872705)"><svg viewBox="0 0 192 59.62467188254591" height="59.62467188254591" width="192"><g><svg viewBox="0 0 192 59.62467188254591" height="59.62467188254591" width="192"><g><svg viewBox="0 0 192 59.62467188254591" height="59.62467188254591" width="192"><g id="textblocktransform"><svg viewBox="0 0 192 59.62467188254591" height="59.62467188254591" width="192" id="textblock"><g><svg viewBox="0 0 192 37.944664031620555" height="37.944664031620555" width="192"><g transform="matrix(1,0,0,1,0,0)"><svg width="192" viewBox="-1.07 -37.6 197.64 39.06" height="37.944664031620555" data-palette-color="#ffffff"><path d="M29.13 0.63L26.1-19.04Q26-18.38 25.72-15.94 25.44-13.5 25.1-10.82 24.76-8.13 24.34-5.43 23.93-2.73 23.39-0.98 22.85 0.78 22.31 0.78L22.31 0.78Q21.26 0.78 19.21 0.73 17.16 0.68 16.11 0.68L16.11 0.68Q11.4 0.68 7.42 0.88L7.42 0.88Q7.08 0.71 6.82 0.34 6.57-0.02 6.41-0.54 6.25-1.05 6.16-1.45 6.08-1.86 5.99-2.48 5.91-3.1 5.86-3.32L5.86-3.32Q1.64-23.46 0.63-27.83L0.63-27.83-1.07-36.04Q-1.07-36.72-0.39-36.96L-0.39-36.96Q0.2-36.91 1.46-36.91L1.46-36.91 3.42-36.91Q4-36.91 5.1-36.96 6.2-37.01 6.69-37.01L6.69-37.01Q7.15-37.04 8.06-37 8.96-36.96 9.23-36.96L9.23-36.96 10.64-36.96Q10.89-36.91 11.38-36.91L11.38-36.91 12.11-36.91Q12.55-36.79 12.99-35.23 13.43-33.67 13.82-30.93 14.21-28.2 14.45-26.16 14.7-24.12 15-21.23 15.31-18.33 15.31-18.29L15.31-18.29 18.41-36.87Q19.58-36.77 20.26-36.77L20.26-36.77 21.78-36.77Q23.75-36.77 27.5-36.79 31.25-36.82 33.11-36.82L33.11-36.82Q33.62-36.82 33.74-36.43L33.74-36.43 36.79-16.24Q37.26-21.8 37.94-26.42L37.94-26.42 39.4-36.33Q39.58-36.91 41.11-36.91L41.11-36.91 42.29-36.91Q42.58-36.94 43.2-36.9 43.82-36.87 44.09-36.87L44.09-36.87 46.24-36.87Q47.14-36.87 48.28-36.84 49.41-36.82 49.46-36.82L49.46-36.82 52.34-36.82Q52.56-36.82 52.64-36.49 52.71-36.16 52.76-35.4L52.76-35.4 44.9 0.54Q44.41 0.59 43.73 0.59 43.04 0.59 42.48 0.57 41.92 0.56 41.19 0.55 40.45 0.54 39.99 0.54L39.99 0.54Q38.99 0.54 36.95 0.51 34.91 0.49 33.89 0.49L33.89 0.49Q33.76 0.49 29.13 0.63L29.13 0.63ZM54.25-0.88L54.25-0.88 54.25-1.81Q54.25-5.98 54.34-14.14 54.44-22.29 54.44-26.46L54.44-26.46 54.44-36.57 82.86-36.57 82.86-28.56Q82.86-28.49 82.86-28.2 82.86-27.91 82.86-27.81 82.86-27.71 82.83-27.45 82.81-27.2 82.75-27.1 82.69-27 82.58-26.82 82.47-26.64 82.32-26.56 82.18-26.49 81.93-26.43 81.69-26.37 81.39-26.37L81.39-26.37 80.71-26.37Q74.39-26.37 69.19-26.56L69.19-26.56Q69.14-26.17 69.03-25.35 68.92-24.54 68.86-23.91 68.8-23.29 68.8-22.71L68.8-22.71 80.42-22.71Q81.15-22.71 81.39-22.51 81.64-22.31 81.64-21.88L81.64-21.88Q81.64-21.75 81.61-21.48 81.59-21.22 81.59-21.09L81.59-21.09Q81.59-19.92 81.66-17.63 81.74-15.33 81.74-14.16L81.74-14.16Q81.66-13.67 81.35-13.67L81.35-13.67Q81.2-13.67 81.1-13.77L81.1-13.77Q73.39-13.38 69.68-13.38L69.68-13.38 69.04-13.38 69.04-9.86Q71.21-9.86 75.33-10.06 79.44-10.25 81.49-10.25L81.49-10.25Q83.1-10.25 83.35-9.57L83.35-9.57 83.35-7.71Q83.35-6.54 83.4-4.25 83.44-1.95 83.44-0.78L83.44-0.78Q83.44 0.44 82.47 0.44L82.47 0.44Q81.2 0.44 78.56 0.42 75.93 0.39 74.56 0.39L74.56 0.39Q71.04 0.39 64.5 0.57 57.96 0.76 55.03 0.78L55.03 0.78 54.34 0Q54.25-0.68 54.25-0.88ZM86.47-1.37L86.47-35.84Q86.47-36.11 86.77-36.32 87.08-36.52 87.67-36.63 88.25-36.74 88.84-36.82 89.42-36.89 90.24-36.91 91.06-36.94 91.6-36.94 92.13-36.94 92.83-36.93 93.53-36.91 93.65-36.91L93.65-36.91 96.38-36.91Q97.19-36.91 98.64-36.96 100.09-37.01 100.78-37.01L100.78-37.01Q112.42-37.01 117.43-33.01L117.43-33.01 118.31-32.23Q118.72-31.84 119.23-31.21 119.75-30.59 120.49-29.33 121.24-28.08 121.82-26.61 122.41-25.15 122.82-23 123.24-20.85 123.24-18.55L123.24-18.55Q123.24-14.99 122.26-11.89 121.28-8.79 119.59-6.52 117.89-4.25 115.61-2.6 113.33-0.95 110.66-0.13 108 0.68 105.17 0.68L105.17 0.68 104.39 0.68Q103.34 0.68 101.26 0.63 99.19 0.59 98.14 0.59L98.14 0.59Q92.01 0.59 87.06 0.78L87.06 0.78Q86.47-0.39 86.47-1.37L86.47-1.37ZM100.83-7.81L100.83-7.81Q102.29-7.81 103.46-8.14 104.63-8.47 105.44-9.01 106.25-9.55 106.86-10.38 107.47-11.21 107.82-12.08 108.17-12.96 108.38-14.1 108.59-15.23 108.66-16.25 108.74-17.26 108.74-18.51L108.74-18.51 108.74-20.02Q108.74-24.51 106.95-26.65 105.17-28.78 100.73-28.91L100.73-28.91Q100.61-28.64 100.34-28.17 100.07-27.71 99.95-27.44L99.95-27.44 99.95-26.27Q99.95-25.9 99.92-24.37L99.92-24.37Q99.6-8.01 100.83-7.81ZM125.14-18.26L125.14-18.26Q125.14-21.63 125.9-24.44 126.65-27.25 127.91-29.2 129.17-31.15 130.94-32.67 132.71-34.18 134.59-35.1 136.47-36.01 138.63-36.6 140.79-37.18 142.67-37.39 144.55-37.6 146.48-37.6L146.48-37.6Q147.89-37.6 149.25-37.48 150.6-37.35 152.3-37.05 154-36.74 155.47-36.11 156.95-35.47 158.31-34.56 159.66-33.64 160.66-32.19 161.66-30.74 162.1-28.91L162.1-28.91Q162.22-28.2 162.59-24.9L162.59-24.9Q162.49-24.17 161.03-24.17L161.03-24.17Q158.93-24.17 154.92-24.27 150.92-24.37 148.92-24.37L148.92-24.37Q148.63-24.46 148.45-24.76 148.28-25.05 148.22-25.39 148.16-25.73 148.03-26.12 147.89-26.51 147.69-26.82 147.48-27.12 146.95-27.33 146.43-27.54 145.65-27.54L145.65-27.54Q144.62-27.54 143.82-27.19 143.01-26.83 142.5-26.32 141.98-25.81 141.62-24.93 141.25-24.05 141.07-23.33 140.89-22.61 140.79-21.5 140.69-20.39 140.68-19.75 140.67-19.12 140.67-18.07L140.67-18.07Q140.67-17.75 140.69-17.29 140.72-16.82 140.72-16.65L140.72-16.65 140.72-15.92Q140.72-15.14 140.74-14.62 140.76-14.11 140.87-13.31 140.98-12.5 141.18-11.95 141.37-11.4 141.75-10.78 142.13-10.16 142.68-9.78 143.23-9.4 144.06-9.14 144.89-8.89 145.94-8.89L145.94-8.89Q148.65-8.89 150.38-9.42L150.38-9.42 150.38-12.4 149.31-12.4 149.31-12.35 147.55-12.35Q147.36-12.35 146.86-12.33 146.35-12.3 146.04-12.3L146.04-12.3 145.16-13.28 145.16-20.02Q145.16-20.65 146.04-21.39L146.04-21.39 147.8-21.39Q149.63-21.39 152.24-21.34 154.85-21.29 156.24-21.29L156.24-21.29 158.2-21.29Q159.61-21.29 160.41-21.26 161.2-21.24 162.18-21.03 163.15-20.83 163.47-20.41L163.47-20.41Q163.47-17.21 163.32-11.08 163.18-4.96 163.18-2.2L163.18-2.2Q163.18-2.12 163.2-1.97 163.22-1.81 163.22-1.71L163.22-1.71 163.22-1.17Q162.39-0.2 157.81 0.54 153.22 1.27 150.09 1.27L150.09 1.27 149.46 1.27Q148.77 1.27 147.43 1.37 146.09 1.46 145.4 1.46L145.4 1.46Q135.56 1.46 130.35-3.8 125.14-9.06 125.14-18.26ZM167.37-0.88L167.37-0.88 167.37-1.81Q167.37-5.98 167.47-14.14 167.57-22.29 167.57-26.46L167.57-26.46 167.57-36.57 195.99-36.57 195.99-28.56Q195.99-28.49 195.99-28.2 195.99-27.91 195.99-27.81 195.99-27.71 195.96-27.45 195.94-27.2 195.88-27.1 195.82-27 195.71-26.82 195.6-26.64 195.45-26.56 195.3-26.49 195.06-26.43 194.81-26.37 194.52-26.37L194.52-26.37 193.84-26.37Q187.51-26.37 182.31-26.56L182.31-26.56Q182.27-26.17 182.16-25.35 182.05-24.54 181.98-23.91 181.92-23.29 181.92-22.71L181.92-22.71 193.54-22.71Q194.28-22.71 194.52-22.51 194.77-22.31 194.77-21.88L194.77-21.88Q194.77-21.75 194.74-21.48 194.72-21.22 194.72-21.09L194.72-21.09Q194.72-19.92 194.79-17.63 194.86-15.33 194.86-14.16L194.86-14.16Q194.79-13.67 194.47-13.67L194.47-13.67Q194.33-13.67 194.23-13.77L194.23-13.77Q186.51-13.38 182.8-13.38L182.8-13.38 182.17-13.38 182.17-9.86Q184.34-9.86 188.45-10.06 192.57-10.25 194.62-10.25L194.62-10.25Q196.23-10.25 196.47-9.57L196.47-9.57 196.47-7.71Q196.47-6.54 196.52-4.25 196.57-1.95 196.57-0.78L196.57-0.78Q196.57 0.44 195.6 0.44L195.6 0.44Q194.33 0.44 191.69 0.42 189.05 0.39 187.69 0.39L187.69 0.39Q184.17 0.39 177.63 0.57 171.08 0.76 168.15 0.78L168.15 0.78 167.47 0Q167.37-0.68 167.37-0.88Z" opacity="1" transform="matrix(1,0,0,1,0,0)" fill="#000000" class="wordmark-text-0" data-fill-palette-color="quaternary" id="text-0"></path></svg></g></svg></g><g transform="matrix(1,0,0,1,24,46.90248853754941)"><svg viewBox="0 0 144 12.722183344996502" height="12.722183344996502" width="144"><g transform="matrix(1,0,0,1,0,0)"><svg width="144" viewBox="0.7 -39.65 572.68 50.5" height="12.722183344996502" data-palette-color="#ffffff"><path d="M28.5-34.55L34.4-34.55 29.55 0 21.2 0 17.5-27.8 13.65 0 5.45 0 0.7-34.55 6.85-34.55 10.05-5.1 14.2-34.55 20.95-34.55 25-5.1 28.5-34.55ZM56.8-13.85Q56.8-13.4 56.65-11.3L56.65-11.3 43-11.3Q43.2-7.2 44.42-5.58 45.65-3.95 47.9-3.95L47.9-3.95Q49.45-3.95 50.7-4.48 51.95-5 53.4-6.15L53.4-6.15 55.95-2.65Q52.45 0.75 47.55 0.75L47.55 0.75Q42.35 0.75 39.57-2.85 36.8-6.45 36.8-13L36.8-13Q36.8-19.55 39.45-23.35 42.1-27.15 46.95-27.15L46.95-27.15Q51.6-27.15 54.2-23.78 56.8-20.4 56.8-13.85L56.8-13.85ZM50.8-15.3L50.8-15.65Q50.8-19.4 49.9-21.13 49-22.85 47-22.85L47-22.85Q45.15-22.85 44.17-21.18 43.2-19.5 43-15.3L43-15.3 50.8-15.3ZM74.05-37.7L80.2-37.05 80.2 0 74.75 0 74.45-3.05Q72.09 0.75 68.4 0.75L68.4 0.75Q64.3 0.75 62.12-2.93 59.95-6.6 59.95-13.2L59.95-13.2Q59.95-17.4 61.07-20.58 62.2-23.75 64.2-25.45 66.2-27.15 68.8-27.15L68.8-27.15Q72-27.15 74.05-24.5L74.05-24.5 74.05-37.7ZM70.15-3.9Q71.3-3.9 72.22-4.7 73.15-5.5 74.05-7L74.05-7 74.05-19.85Q72.45-22.55 70.4-22.55L70.4-22.55Q66.34-22.55 66.34-13.25L66.34-13.25Q66.34-8.2 67.34-6.05 68.34-3.9 70.15-3.9L70.15-3.9ZM103.84-29.85L105.39-25.1Q104.34-24.6 102.87-24.4 101.39-24.2 99.19-24.2L99.19-24.2Q101.29-23.2 102.32-21.53 103.34-19.85 103.34-17.4L103.34-17.4Q103.34-13.4 100.89-10.95 98.44-8.5 94.24-8.5L94.24-8.5Q92.99-8.5 91.69-8.9L91.69-8.9Q90.79-8.15 90.79-6.85L90.79-6.85Q90.79-5.85 91.34-5.35 91.89-4.85 93.39-4.85L93.39-4.85 96.19-4.85Q100.19-4.85 102.54-2.78 104.89-0.7 104.89 2.5L104.89 2.5Q104.89 6.3 101.97 8.58 99.04 10.85 93.64 10.85L93.64 10.85Q87.94 10.85 85.67 8.75 83.39 6.65 83.39 2.6L83.39 2.6 88.84 2.6Q88.84 4.75 89.84 5.65 90.84 6.55 93.69 6.55L93.69 6.55Q96.44 6.55 97.59 5.6 98.74 4.65 98.74 2.9L98.74 2.9Q98.74 1.2 97.79 0.4 96.84-0.4 94.84-0.4L94.84-0.4 92.94-0.4Q89.14-0.4 87.39-1.75 85.64-3.1 85.64-5.45L85.64-5.45Q85.64-6.8 86.37-8.03 87.09-9.25 88.34-10.2L88.34-10.2Q86.29-11.5 85.34-13.3 84.39-15.1 84.39-17.7L84.39-17.7Q84.39-22.05 86.99-24.58 89.59-27.1 93.99-27.1L93.99-27.1Q97.24-27.1 99.37-27.8 101.49-28.5 103.84-29.85L103.84-29.85ZM93.99-23Q92.24-23 91.34-21.75 90.44-20.5 90.44-17.8L90.44-17.8Q90.44-15.25 91.34-13.88 92.24-12.5 93.94-12.5L93.94-12.5Q95.69-12.5 96.54-13.73 97.39-14.95 97.39-17.85L97.39-17.85Q97.39-20.55 96.57-21.78 95.74-23 93.99-23L93.99-23ZM126.99-13.85Q126.99-13.4 126.84-11.3L126.84-11.3 113.19-11.3Q113.39-7.2 114.62-5.58 115.84-3.95 118.09-3.95L118.09-3.95Q119.64-3.95 120.89-4.48 122.14-5 123.59-6.15L123.59-6.15 126.14-2.65Q122.64 0.75 117.74 0.75L117.74 0.75Q112.54 0.75 109.77-2.85 106.99-6.45 106.99-13L106.99-13Q106.99-19.55 109.64-23.35 112.29-27.15 117.14-27.15L117.14-27.15Q121.79-27.15 124.39-23.78 126.99-20.4 126.99-13.85L126.99-13.85ZM120.99-15.3L120.99-15.65Q120.99-19.4 120.09-21.13 119.19-22.85 117.19-22.85L117.19-22.85Q115.34-22.85 114.37-21.18 113.39-19.5 113.19-15.3L113.19-15.3 120.99-15.3ZM159.78-26.45L152.78 0.1Q151.48 4.9 148.59 7.65 145.69 10.4 140.84 10.85L140.84 10.85 140.13 6.5Q143.28 5.85 144.86 4.42 146.44 3 147.34 0L147.34 0 145.03 0 138.34-26.45 144.59-26.45 148.98-4.1 153.69-26.45 159.78-26.45ZM172.08-27.15Q177.08-27.15 179.86-23.65 182.63-20.15 182.63-13.25L182.63-13.25Q182.63-6.65 179.83-2.95 177.03 0.75 172.08 0.75L172.08 0.75Q167.13 0.75 164.33-2.88 161.53-6.5 161.53-13.25L161.53-13.25Q161.53-19.95 164.33-23.55 167.13-27.15 172.08-27.15L172.08-27.15ZM172.08-22.5Q169.93-22.5 168.93-20.38 167.93-18.25 167.93-13.25L167.93-13.25Q167.93-8.2 168.93-6.08 169.93-3.95 172.08-3.95L172.08-3.95Q174.23-3.95 175.23-6.08 176.23-8.2 176.23-13.25L176.23-13.25Q176.23-18.3 175.23-20.4 174.23-22.5 172.08-22.5L172.08-22.5ZM205.33-26.45L205.33 0 199.98 0 199.68-3.35Q198.43-1.3 196.88-0.28 195.33 0.75 193.28 0.75L193.28 0.75Q190.38 0.75 188.71-1.3 187.03-3.35 187.03-6.65L187.03-6.65 187.03-26.45 193.18-26.45 193.18-7Q193.18-3.9 195.28-3.9L195.28-3.9Q196.48-3.9 197.43-4.83 198.38-5.75 199.18-7.45L199.18-7.45 199.18-26.45 205.33-26.45ZM222.68-27.1Q223.83-27.1 224.73-26.75L224.73-26.75 223.73-20.85Q222.73-21.1 221.88-21.1L221.88-21.1Q219.98-21.1 218.88-19.45 217.78-17.8 217.18-14.55L217.18-14.55 217.18 0 211.03 0 211.03-26.45 216.38-26.45 216.83-21.85Q218.68-27.1 222.68-27.1L222.68-27.1ZM259.47-26.45L265.17-26.45 260.62 0 253.12 0 250.17-20.85 247.27 0 239.82 0 235.17-26.45 241.12-26.45 243.82-4.6 247.17-26.45 253.42-26.45 256.62-4.6 259.47-26.45ZM285.57-6.4Q285.57-5.1 285.92-4.48 286.27-3.85 287.07-3.45L287.07-3.45 285.82 0.65Q283.77 0.4 282.55-0.45 281.32-1.3 280.72-3.05L280.72-3.05Q278.42 0.75 274.27 0.75L274.27 0.75Q270.97 0.75 269.02-1.48 267.07-3.7 267.07-7.4L267.07-7.4Q267.07-11.7 269.75-13.95 272.42-16.2 277.52-16.2L277.52-16.2 279.57-16.2 279.57-18.05Q279.57-20.55 278.69-21.58 277.82-22.6 275.87-22.6L275.87-22.6Q273.52-22.6 270.02-21.3L270.02-21.3 268.62-25.3Q270.62-26.2 272.77-26.68 274.92-27.15 276.87-27.15L276.87-27.15Q285.57-27.15 285.57-18.35L285.57-18.35 285.57-6.4ZM275.92-3.7Q278.32-3.7 279.57-7L279.57-7 279.57-12.55 278.12-12.55Q275.57-12.55 274.39-11.4 273.22-10.25 273.22-7.85L273.22-7.85Q273.22-5.8 273.92-4.75 274.62-3.7 275.92-3.7L275.92-3.7ZM310.02-26.45L303.02 0.1Q301.72 4.9 298.82 7.65 295.92 10.4 291.07 10.85L291.07 10.85 290.37 6.5Q293.52 5.85 295.09 4.42 296.67 3 297.57 0L297.57 0 295.27 0 288.57-26.45 294.82-26.45 299.22-4.1 303.92-26.45 310.02-26.45ZM322.76-26.45L328.91-26.45 328.91 0 322.76 0 322.76-26.45ZM325.81-39.65Q327.46-39.65 328.49-38.6 329.51-37.55 329.51-35.9L329.51-35.9Q329.51-34.3 328.49-33.25 327.46-32.2 325.81-32.2L325.81-32.2Q324.16-32.2 323.14-33.25 322.11-34.3 322.11-35.9L322.11-35.9Q322.11-37.55 323.14-38.6 324.16-39.65 325.81-39.65L325.81-39.65ZM346.96-27.15Q349.81-27.15 351.46-25.1 353.11-23.05 353.11-19.6L353.11-19.6 353.11 0 346.96 0 346.96-18.9Q346.96-20.8 346.44-21.63 345.91-22.45 344.91-22.45L344.91-22.45Q342.81-22.45 340.76-18.5L340.76-18.5 340.76 0 334.61 0 334.61-26.45 339.96-26.45 340.41-23Q341.76-25.1 343.29-26.13 344.81-27.15 346.96-27.15L346.96-27.15ZM369.81-5L371.96-1.2Q369.51 0.75 366.21 0.75L366.21 0.75Q362.76 0.75 360.96-1.23 359.16-3.2 359.16-6.6L359.16-6.6 359.16-22 356.06-22 356.06-26.45 359.16-26.45 359.16-32.3 365.31-33.05 365.31-26.45 370.31-26.45 369.71-22 365.31-22 365.31-6.6Q365.31-4.2 367.36-4.2L367.36-4.2Q368.01-4.2 368.51-4.38 369.01-4.55 369.81-5L369.81-5ZM383.91-27.15Q388.91-27.15 391.68-23.65 394.46-20.15 394.46-13.25L394.46-13.25Q394.46-6.65 391.66-2.95 388.86 0.75 383.91 0.75L383.91 0.75Q378.96 0.75 376.16-2.88 373.36-6.5 373.36-13.25L373.36-13.25Q373.36-19.95 376.16-23.55 378.96-27.15 383.91-27.15L383.91-27.15ZM383.91-22.5Q381.76-22.5 380.76-20.38 379.76-18.25 379.76-13.25L379.76-13.25Q379.76-8.2 380.76-6.08 381.76-3.95 383.91-3.95L383.91-3.95Q386.06-3.95 387.06-6.08 388.06-8.2 388.06-13.25L388.06-13.25Q388.06-18.3 387.06-20.4 386.06-22.5 383.91-22.5L383.91-22.5ZM420-5L422.15-1.2Q419.7 0.75 416.4 0.75L416.4 0.75Q412.95 0.75 411.15-1.23 409.35-3.2 409.35-6.6L409.35-6.6 409.35-22 406.25-22 406.25-26.45 409.35-26.45 409.35-32.3 415.5-33.05 415.5-26.45 420.5-26.45 419.9-22 415.5-22 415.5-6.6Q415.5-4.2 417.55-4.2L417.55-4.2Q418.2-4.2 418.7-4.38 419.2-4.55 420-5L420-5ZM437.05-27.15Q439.9-27.15 441.55-25.1 443.2-23.05 443.2-19.6L443.2-19.6 443.2 0 437.05 0 437.05-18.9Q437.05-20.8 436.52-21.63 436-22.45 435-22.45L435-22.45Q432.9-22.45 430.85-18.5L430.85-18.5 430.85 0 424.7 0 424.7-37 430.85-37.65 430.85-23.3Q432.1-25.25 433.57-26.2 435.05-27.15 437.05-27.15L437.05-27.15ZM467.6-13.85Q467.6-13.4 467.45-11.3L467.45-11.3 453.8-11.3Q454-7.2 455.22-5.58 456.45-3.95 458.7-3.95L458.7-3.95Q460.25-3.95 461.5-4.48 462.75-5 464.2-6.15L464.2-6.15 466.75-2.65Q463.25 0.75 458.35 0.75L458.35 0.75Q453.15 0.75 450.37-2.85 447.6-6.45 447.6-13L447.6-13Q447.6-19.55 450.25-23.35 452.9-27.15 457.75-27.15L457.75-27.15Q462.4-27.15 465-23.78 467.6-20.4 467.6-13.85L467.6-13.85ZM461.6-15.3L461.6-15.65Q461.6-19.4 460.7-21.13 459.8-22.85 457.8-22.85L457.8-22.85Q455.95-22.85 454.97-21.18 454-19.5 453.8-15.3L453.8-15.3 461.6-15.3ZM491.44-33.05Q490.04-33.05 489.37-32.3 488.69-31.55 488.69-30L488.69-30 488.69-26.45 493.74-26.45 493.04-22 488.69-22 488.69 0 482.54 0 482.54-22 479.24-22 479.24-26.45 482.54-26.45 482.54-29.8Q482.54-33.4 484.64-35.55 486.74-37.7 490.64-37.7L490.64-37.7Q493.69-37.7 496.54-36.2L496.54-36.2 494.84-32.2Q493.09-33.05 491.44-33.05L491.44-33.05ZM502.14 0.75Q499.44 0.75 497.86-0.93 496.29-2.6 496.29-5.4L496.29-5.4 496.29-37.05 502.44-37.7 502.44-5.65Q502.44-5 502.74-4.6 503.04-4.2 503.64-4.2L503.64-4.2Q503.99-4.2 504.31-4.3 504.64-4.4 504.74-4.4L504.74-4.4 505.94-0.2Q504.24 0.75 502.14 0.75L502.14 0.75ZM518.39-27.15Q523.39-27.15 526.16-23.65 528.94-20.15 528.94-13.25L528.94-13.25Q528.94-6.65 526.14-2.95 523.34 0.75 518.39 0.75L518.39 0.75Q513.44 0.75 510.64-2.88 507.84-6.5 507.84-13.25L507.84-13.25Q507.84-19.95 510.64-23.55 513.44-27.15 518.39-27.15L518.39-27.15ZM518.39-22.5Q516.24-22.5 515.24-20.38 514.24-18.25 514.24-13.25L514.24-13.25Q514.24-8.2 515.24-6.08 516.24-3.95 518.39-3.95L518.39-3.95Q520.54-3.95 521.54-6.08 522.54-8.2 522.54-13.25L522.54-13.25Q522.54-18.3 521.54-20.4 520.54-22.5 518.39-22.5L518.39-22.5ZM542.98-27.15Q545.13-27.15 546.88-26.43 548.63-25.7 550.23-24.15L550.23-24.15 547.58-20.65Q546.48-21.55 545.51-21.98 544.53-22.4 543.38-22.4L543.38-22.4Q541.13-22.4 539.98-20.28 538.83-18.15 538.83-13.1L538.83-13.1Q538.83-8.2 540.01-6.2 541.18-4.2 543.38-4.2L543.38-4.2Q544.48-4.2 545.38-4.6 546.28-5 547.48-5.85L547.48-5.85 550.23-2.3Q547.03 0.75 543.08 0.75L543.08 0.75Q537.98 0.75 535.16-2.73 532.33-6.2 532.33-13L532.33-13Q532.33-17.4 533.63-20.6 534.93-23.8 537.36-25.48 539.78-27.15 542.98-27.15L542.98-27.15ZM553.28-37.05L559.43-37.7 559.43 0 553.28 0 553.28-37.05ZM566.78-26.45L572.78-26.45 565.78-14.75 573.38 0 566.78 0 559.68-14.45 566.78-26.45Z" opacity="1" transform="matrix(1,0,0,1,0,0)" fill="#000000" class="slogan-text-1" data-fill-palette-color="quaternary" id="text-1"></path></svg></g></svg></g></svg></g></svg></g></svg></g></svg></g></svg></g><defs></defs></svg><rect width="320" height="360" fill="none" stroke="none" visibility="hidden"></rect></g></svg></g></svg>