<?xml version="1.0" standalone="no"?>
<!DOCTYPE svg PUBLIC "-//W3C//DTD SVG 20010904//EN"
 "http://www.w3.org/TR/2001/REC-SVG-20010904/DTD/svg10.dtd">
<svg version="1.0" xmlns="http://www.w3.org/2000/svg"
 width="1500.000000pt" height="1687.000000pt" viewBox="0 0 1500.000000 1687.000000"
 preserveAspectRatio="xMidYMid meet">

<g transform="translate(0.000000,1687.000000) scale(0.100000,-0.100000)"
fill="#000000" stroke="none">
<path d="M9604 9829 c-386 -23 -687 -216 -798 -511 -60 -160 -78 -408 -42
-593 68 -350 290 -574 646 -651 70 -16 124 -19 308 -17 364 3 673 45 741 100
21 18 22 21 24 463 l2 444 -40 12 c-24 7 -178 14 -392 18 l-351 7 -21 -22
c-20 -21 -21 -34 -21 -194 0 -213 -5 -205 133 -205 l97 0 0 -64 c0 -77 2 -76
-135 -83 -118 -6 -171 5 -219 48 -63 55 -71 95 -71 349 0 192 3 233 18 280 35
104 102 159 194 160 57 0 89 -17 103 -54 30 -81 28 -80 120 -88 47 -3 185 -6
306 -7 186 -1 224 1 234 14 17 20 5 157 -20 237 -37 121 -107 198 -239 267
-149 77 -324 104 -577 90z"/>
<path d="M3011 9793 c-18 -13 -10 -56 96 -548 43 -201 135 -635 223 -1062 6
-28 20 -63 31 -77 l19 -24 351 0 352 1 20 46 c30 68 61 238 98 534 19 147 36
263 40 259 5 -6 130 -801 129 -824 0 -5 163 -8 363 -8 l363 0 178 813 c111
508 176 828 174 852 l-3 40 -291 3 c-237 2 -293 0 -303 -11 -13 -16 -94 -563
-112 -757 -7 -71 -14 -129 -15 -127 -2 1 -32 198 -68 437 -37 239 -68 441 -71
448 -3 9 -83 12 -352 12 l-348 0 -63 -382 c-35 -211 -66 -392 -69 -403 -4 -11
-16 68 -28 175 -43 377 -78 567 -111 600 -12 13 -58 15 -301 15 -202 0 -291
-3 -302 -12z"/>
<path d="M7122 9798 c-59 -4 -102 -12 -117 -22 l-25 -16 0 -793 c0 -747 3
-838 28 -873 5 -7 159 -8 502 -4 479 6 497 7 565 29 223 73 391 215 491 416
64 131 85 221 91 395 8 225 -31 381 -133 547 -107 173 -284 269 -579 314 -87
14 -664 19 -823 7z m643 -382 c67 -17 104 -38 141 -78 70 -74 89 -152 88 -363
-1 -231 -29 -332 -116 -415 -44 -44 -140 -80 -208 -80 -37 0 -39 1 -50 48 -8
30 -14 187 -17 436 -5 355 -4 391 12 427 17 36 21 39 59 39 23 0 64 -6 91 -14z"/>
<path d="M5527 9408 c-4 -211 -7 -588 -7 -839 0 -434 1 -457 19 -473 17 -16
45 -16 387 -7 203 6 488 11 634 11 194 0 269 3 278 12 9 9 12 74 12 230 l0
218 -25 16 c-23 15 -49 16 -223 10 -108 -3 -243 -9 -299 -12 l-103 -7 0 82 0
81 113 0 c61 0 190 3 285 7 l172 6 0 198 c0 186 -1 199 -19 209 -12 6 -123 10
-290 10 l-271 0 0 39 c0 21 3 58 6 82 l6 44 280 -3 c154 -2 291 -1 304 2 38
10 45 59 42 271 l-3 190 -646 3 -646 2 -6 -382z"/>
<path d="M10677 9398 c-4 -215 -7 -592 -7 -838 0 -426 1 -448 19 -464 17 -16
45 -16 387 -7 203 6 488 11 634 11 194 0 269 3 278 12 9 9 12 74 12 230 l0
218 -25 16 c-23 15 -49 16 -223 10 -108 -3 -243 -9 -299 -12 l-103 -7 0 80 0
80 277 7 c152 4 280 9 285 12 4 3 8 93 8 199 0 182 -1 195 -19 205 -12 6 -123
10 -290 10 l-271 0 0 39 c0 21 3 58 6 82 l6 44 292 -3 c245 -3 294 -1 311 12
19 14 20 26 20 233 l0 218 -646 3 -646 2 -6 -392z"/>
<path d="M7925 7620 c-36 -40 7 -96 55 -70 27 14 27 65 1 80 -27 14 -35 13
-56 -10z"/>
<path d="M4990 7536 l0 -75 -29 17 c-85 48 -162 -78 -133 -217 18 -87 67 -122
130 -95 20 8 33 9 40 2 5 -5 22 -8 38 -6 l29 3 0 220 0 220 -37 3 -38 3 0 -75z
m-16 -122 c12 -11 16 -35 16 -85 0 -82 -11 -109 -45 -109 -20 0 -26 7 -36 42
-12 46 -5 134 13 155 14 17 33 16 52 -3z"/>
<path d="M9120 7384 l0 -225 38 3 37 3 3 116 c2 102 5 119 23 134 12 12 23 15
29 9 5 -5 11 -66 12 -134 l3 -125 38 -3 37 -3 0 141 c0 136 -1 142 -25 165
-28 29 -61 32 -93 9 l-22 -15 0 75 0 76 -40 0 -40 0 0 -226z"/>
<path d="M9839 7597 c-24 -18 -39 -52 -39 -86 0 -24 -4 -31 -20 -31 -16 0 -20
-7 -20 -30 0 -23 4 -30 20 -30 19 0 20 -7 20 -130 l0 -130 40 0 40 0 0 130 0
130 25 0 c14 0 25 3 25 8 0 4 3 17 6 30 6 19 3 22 -25 22 -30 0 -32 2 -29 33
3 30 6 32 41 33 l37 1 0 -163 c0 -89 4 -174 10 -188 10 -26 48 -43 85 -37 27
4 27 5 19 35 -3 14 -12 26 -20 26 -11 0 -14 35 -14 194 l0 194 -92 0 c-57 1
-99 -4 -109 -11z"/>
<path d="M10634 7597 c-2 -7 -3 -107 -2 -222 l3 -210 38 -3 37 -3 0 87 0 86
43 -83 c40 -81 43 -84 80 -87 22 -2 37 1 37 8 0 6 -18 47 -40 91 l-41 81 27
46 c15 26 34 57 42 70 14 21 13 22 -25 22 -37 0 -40 -2 -78 -67 l-40 -68 -3
133 -3 132 -35 0 c-19 0 -37 -6 -40 -13z"/>
<path d="M4128 7575 c-2 -3 8 -96 24 -207 15 -112 28 -204 28 -205 0 -2 22 -3
49 -3 46 0 50 2 55 28 5 23 34 229 37 265 1 7 11 -55 23 -138 l21 -150 53 -3
c37 -2 52 1 52 10 0 7 13 100 29 206 15 105 25 194 23 197 -3 3 -20 5 -37 5
-37 0 -34 9 -56 -187 -7 -62 -15 -111 -17 -108 -3 2 -13 64 -23 137 -11 73
-21 139 -24 146 -2 6 -20 12 -40 12 -20 0 -38 -6 -40 -12 -3 -7 -14 -76 -25
-152 -11 -77 -22 -141 -23 -143 -2 -1 -9 52 -16 120 -19 190 -18 187 -55 187
-18 0 -35 -2 -38 -5z"/>
<path d="M8373 7553 c-19 -4 -23 -11 -23 -39 0 -27 -4 -34 -20 -34 -16 0 -20
-7 -20 -30 0 -23 4 -30 20 -30 19 0 20 -7 20 -108 0 -119 7 -137 55 -150 33
-10 95 3 95 18 0 25 -24 47 -46 42 -24 -4 -24 -4 -24 97 l0 101 25 0 c21 0 25
5 25 30 0 25 -4 30 -24 30 -21 0 -25 5 -28 37 -3 39 -12 45 -55 36z"/>
<path d="M8963 7553 c-19 -4 -23 -11 -23 -39 0 -27 -4 -34 -20 -34 -16 0 -20
-7 -20 -30 0 -23 4 -30 20 -30 19 0 20 -7 20 -107 1 -118 8 -138 56 -152 33
-9 94 4 94 20 0 27 -20 46 -45 42 l-25 -5 0 101 0 101 25 0 c21 0 25 5 25 30
0 25 -4 30 -25 30 -22 0 -25 4 -25 40 0 42 -3 44 -57 33z"/>
<path d="M5305 7505 c-16 -8 -48 -14 -70 -15 -99 -1 -156 -94 -107 -175 16
-26 17 -33 4 -58 -13 -26 -13 -31 5 -55 16 -22 29 -28 71 -30 55 -3 77 -20 67
-51 -12 -39 -83 -41 -100 -3 -7 16 -18 22 -42 22 -29 0 -33 -3 -33 -25 0 -14
11 -37 25 -50 21 -22 33 -25 94 -25 64 0 74 3 103 29 25 22 32 36 32 65 0 55
-36 86 -108 93 -45 5 -56 9 -54 22 2 9 11 15 21 13 35 -6 88 20 108 52 25 40
24 77 -2 110 l-20 26 25 0 c31 0 39 11 30 45 -7 28 -8 28 -49 10z m-50 -130
c0 -49 -1 -50 -30 -50 -28 0 -30 3 -33 39 -5 54 3 68 35 64 26 -3 28 -6 28
-53z"/>
<path d="M4620 7478 c-84 -44 -93 -251 -13 -303 32 -21 102 -21 142 -1 36 19
38 27 13 49 -12 11 -22 13 -32 7 -8 -5 -29 -10 -47 -10 -34 0 -53 21 -53 59 0
19 6 21 80 21 l80 0 0 33 c0 51 -18 101 -44 126 -29 27 -92 37 -126 19z m78
-60 c7 -7 12 -25 12 -40 0 -26 -3 -28 -40 -28 -34 0 -40 3 -40 21 0 49 39 76
68 47z"/>
<path d="M5435 7468 c-38 -29 -55 -76 -55 -148 0 -111 39 -162 125 -162 43 0
95 22 95 40 0 5 -6 17 -14 28 -12 15 -17 17 -27 7 -16 -16 -71 -17 -87 -1 -7
7 -12 25 -12 40 l0 28 81 0 82 0 -6 49 c-8 65 -30 107 -67 126 -41 21 -83 19
-115 -7z m95 -57 c5 -11 10 -29 10 -40 0 -18 -6 -21 -40 -21 -37 0 -40 2 -40
28 0 49 49 72 70 33z"/>
<path d="M6084 7472 c-42 -27 -64 -78 -64 -148 0 -65 26 -131 61 -152 30 -19
102 -17 132 3 72 47 77 228 9 289 -31 27 -100 31 -138 8z m90 -64 c18 -26 22
-122 6 -162 -13 -36 -57 -36 -70 0 -26 67 -4 184 35 184 8 0 21 -10 29 -22z"/>
<path d="M6695 7465 c-23 -22 -25 -23 -25 -5 0 16 -7 20 -35 20 l-35 0 0 -160
0 -160 40 0 40 0 0 98 c0 111 12 145 52 150 21 3 27 10 31 35 2 18 3 35 0 40
-9 15 -45 6 -68 -18z"/>
<path d="M7312 7479 c-24 -7 -32 -14 -28 -25 3 -9 6 -20 6 -26 0 -7 17 -8 46
-3 51 7 74 -5 74 -40 0 -19 -7 -23 -46 -28 -79 -9 -123 -78 -93 -148 21 -53
97 -68 144 -29 9 7 16 6 25 -5 15 -18 46 -20 52 -2 10 26 -9 253 -22 274 -26
41 -85 53 -158 32z m98 -202 c0 -43 -32 -76 -55 -57 -18 15 -20 61 -3 78 7 7
22 12 35 12 19 0 23 -5 23 -33z"/>
<path d="M8156 7469 c-21 -17 -26 -18 -26 -5 0 12 -10 16 -35 16 l-35 0 0
-161 0 -160 38 3 37 3 3 116 c2 102 5 119 23 134 12 12 23 15 29 9 5 -5 11
-66 12 -134 l3 -125 38 -3 37 -3 0 141 c0 136 -1 142 -25 165 -30 30 -64 32
-99 4z"/>
<path d="M8591 7477 c-54 -27 -86 -110 -74 -192 12 -85 52 -126 122 -127 83
-1 125 56 125 167 0 47 -5 80 -17 102 -30 56 -101 79 -156 50z m77 -60 c18
-21 25 -109 13 -155 -10 -35 -16 -42 -36 -42 -34 0 -45 27 -45 109 0 50 4 74
16 85 19 19 38 20 52 3z"/>
<path d="M9460 7478 c-63 -33 -90 -170 -50 -252 24 -51 50 -68 105 -68 42 0
105 25 105 41 0 18 -36 40 -50 31 -8 -5 -29 -10 -47 -10 -34 0 -53 21 -53 59
0 19 6 21 80 21 l80 0 0 40 c0 48 -19 98 -48 123 -26 24 -90 31 -122 15z m78
-60 c7 -7 12 -25 12 -40 0 -26 -3 -28 -40 -28 -34 0 -40 3 -40 21 0 49 39 76
68 47z"/>
<path d="M10164 7472 c-80 -51 -87 -221 -11 -290 29 -27 100 -32 137 -10 75
45 82 229 12 292 -31 28 -100 31 -138 8z m90 -64 c18 -26 22 -138 6 -169 -6
-11 -21 -19 -36 -19 -33 0 -47 38 -42 116 5 88 38 120 72 72z"/>
<path d="M10458 7474 c-85 -46 -93 -246 -12 -299 30 -20 83 -22 123 -5 35 14
39 30 13 53 -13 12 -21 14 -29 6 -18 -18 -57 -6 -70 21 -15 30 -17 108 -4 143
12 31 43 42 72 26 19 -10 25 -9 36 7 19 26 17 32 -17 49 -36 19 -77 19 -112
-1z"/>
<path d="M5750 7470 c0 -34 73 -297 85 -306 12 -9 12 -14 -1 -33 -9 -12 -27
-26 -40 -31 -33 -13 -34 -60 -1 -60 29 0 82 33 101 63 13 19 106 344 106 370
0 4 -17 7 -37 5 l-38 -3 -26 -120 -26 -120 -11 55 c-7 30 -17 84 -24 120 l-13
65 -37 3 c-23 2 -38 -1 -38 -8z"/>
<path d="M6320 7350 c0 -77 5 -139 12 -155 18 -40 84 -50 121 -18 15 15 17 15
17 0 0 -13 9 -17 35 -17 l35 0 0 160 0 160 -40 0 -40 0 0 -118 c0 -122 -6
-142 -42 -142 -16 0 -18 11 -18 130 l0 130 -40 0 -40 0 0 -130z"/>
<path d="M6890 7463 c0 -10 11 -79 25 -153 14 -74 25 -139 25 -143 0 -4 21 -7
48 -5 l47 3 15 110 16 110 13 -95 c18 -135 15 -130 66 -130 51 0 45 -15 75
166 26 160 27 154 -14 154 l-34 0 -13 -105 c-7 -58 -16 -100 -20 -93 -3 7 -12
55 -19 106 l-13 92 -37 0 c-21 0 -40 -6 -43 -13 -2 -7 -10 -54 -17 -106 -14
-103 -24 -102 -35 4 -11 111 -12 115 -51 115 -26 0 -34 -4 -34 -17z"/>
<path d="M7520 7469 c0 -33 73 -296 85 -305 12 -9 12 -14 -1 -33 -9 -12 -27
-26 -40 -31 -34 -13 -34 -60 0 -60 34 0 89 40 108 80 15 32 98 328 98 351 0 6
-17 9 -37 7 l-38 -3 -24 -119 c-27 -133 -29 -132 -56 22 l-18 102 -39 0 c-21
0 -38 -5 -38 -11z"/>
<path d="M7920 7319 l0 -160 38 3 37 3 3 158 3 157 -41 0 -40 0 0 -161z"/>
</g>
</svg>
